<?xml version="1.0" standalone="no"?>
<!DOCTYPE svg PUBLIC "-//W3C//DTD SVG 20010904//EN"
 "http://www.w3.org/TR/2001/REC-SVG-20010904/DTD/svg10.dtd">
<svg version="1.0" xmlns="http://www.w3.org/2000/svg"
 width="500.000000pt" height="500.000000pt" viewBox="0 0 500.000000 500.000000"
 preserveAspectRatio="xMidYMid meet">
<metadata>
Created by potrace 1.14, written by Peter Selinger 2001-2017
</metadata>
<g transform="translate(0.000000,500.000000) scale(0.100000,-0.100000)"
fill="#000000" stroke="none">
<path d="M0 2500 l0 -2500 2500 0 2500 0 0 2500 0 2500 -2500 0 -2500 0 0
-2500z m2118 1578 c28 -28 13 -56 -50 -94 -118 -72 -239 -181 -360 -328 -20
-23 -30 -28 -51 -22 -37 9 -44 42 -16 80 81 111 219 239 352 329 72 48 103 57
125 35z m96 -259 c8 -12 12 -28 9 -35 -3 -8 -42 -43 -87 -78 -44 -35 -110 -94
-146 -130 -71 -73 -102 -83 -122 -41 -10 22 -6 30 37 80 82 96 239 223 277
224 9 1 24 -9 32 -20z m538 -70 c29 -34 33 -87 14 -179 -17 -82 -36 -136 -195
-550 -39 -102 -71 -190 -71 -197 0 -7 6 -13 13 -13 7 0 149 180 315 400 254
335 310 404 350 427 56 33 101 34 158 5 136 -70 60 -253 -331 -792 -81 -113
-150 -212 -152 -221 -8 -30 17 -31 55 -3 20 16 133 122 250 237 298 290 398
367 478 367 81 0 147 -78 125 -149 -32 -108 -186 -276 -576 -626 -118 -106
-118 -106 -101 -123 11 -11 59 13 277 139 162 93 278 153 301 156 62 9 138
-52 138 -110 0 -59 -65 -117 -345 -310 -162 -111 -315 -232 -504 -398 -107
-94 -155 -128 -240 -172 -169 -87 -293 -128 -443 -147 l-79 -10 -197 -189
c-108 -104 -209 -199 -223 -210 l-27 -21 -88 58 c-231 152 -429 356 -579 596
l-48 78 241 236 240 237 5 225 c5 249 24 384 78 571 57 196 131 297 208 285
102 -16 150 -169 135 -432 l-7 -122 26 -17 c39 -25 68 -16 101 34 16 24 125
233 243 465 218 427 246 476 286 498 60 32 131 22 169 -23z m916 -1761 c23
-23 12 -49 -39 -96 -117 -107 -263 -198 -303 -188 -27 7 -38 35 -24 60 5 9 28
26 51 37 46 23 158 105 222 162 41 37 72 46 93 25z m226 -144 c27 -27 18 -46
-56 -119 -92 -90 -198 -168 -315 -235 -95 -53 -136 -61 -156 -29 -17 27 -1 46
70 84 119 65 230 144 323 231 49 46 96 84 104 84 8 0 22 -7 30 -16z"/>
</g>
</svg>
